<svg width="64px" height="64px" viewBox="0 0 24 24" xmlns="http://www.w3.org/2000/svg" fill="rgb(255,255,255)" transform="matrix(-1, 0, 0, -1, 0, 0)">
	<g id="SVGRepo_bgCarrier">
	</g>
	<g id="SVGRepo_tracerCarrier" stroke-linecap="round" stroke-linejoin="round">
	</g>
	<g id="SVGRepo_iconCarrier">
		<g>
			<path fill="none" d="M0 0h24v24H0z">
			</path>
			<path stroke="#FFF" stroke-width="2px" stroke-opacity="0.2" d="M5 8v12h4V8H5zM3 7l4-5 4 5v15H3V7zm16 9v-2h-3v-2h3v-2h-2V8h2V6h-4v14h4v-2h-2v-2h2zM14 4h6a1 1 0 0 1 1 1v16a1 1 0 0 1-1 1h-6a1 1 0 0 1-1-1V5a1 1 0 0 1 1-1z">
			</path>
		</g>
	</g>
</svg>
