<?xml version="1.0" ?><!DOCTYPE svg  PUBLIC '-//W3C//DTD SVG 1.1//EN'  'http://www.w3.org/Graphics/SVG/1.1/DTD/svg11.dtd'>
<svg height="100px" style="shape-rendering:geometricPrecision; text-rendering:geometricPrecision; image-rendering:optimizeQuality; fill-rule:evenodd; clip-rule:evenodd" version="1.1" viewBox="0 0 256000 255998" width="100px" xml:space="preserve" xmlns="http://www.w3.org/2000/svg" xmlns:xlink="http://www.w3.org/1999/xlink"><defs><style type="text/css">
   <![CDATA[
    .fil4 {fill:none}
    .fil0 {fill:#B2B2B2}
    .fil3 {fill:#B2B2B2}
    .fil2 {fill:#B2B2B2}
    .fil1 {fill:#B2B2B2}
   ]]>
  </style></defs><g id="Layer_x0020_1"><path class="fil0" d="M62939 115673l-29871 0 0 8864 21186 0c-1047,12430 -11389,17731 -21150,17731 -12489,0 -23387,-9826 -23387,-23599 0,-13417 10389,-23749 23414,-23749 10050,0 15972,6406 15972,6406l6205 -6427c0,0 -7965,-8868 -22494,-8868 -18500,-1 -32814,15614 -32814,32480 0,16526 13463,32642 33286,32642 17433,-1 30194,-11943 30194,-29603 0,-3726 -541,-5879 -541,-5879l0 2z"/><path class="fil1" d="M87531 117475c6028,0 11740,4873 11740,12725 0,7687 -5688,12698 -11767,12698 -6680,0 -11951,-5349 -11951,-12758 0,-7251 5204,-12665 11978,-12665l0 0zm-122 -8221c-12257,0 -21041,9582 -21041,20759 0,11340 8521,21101 21185,21101 11465,0 20859,-8763 20859,-20858 0,-13863 -10927,-21002 -21003,-21002z"/><path class="fil2" d="M133292 117475c6029,0 11741,4873 11741,12725 0,7687 -5689,12698 -11768,12698 -6679,0 -11949,-5349 -11949,-12758 0,-7251 5204,-12665 11976,-12665l0 0zm-121 -8221c-12256,0 -21041,9582 -21041,20759 0,11340 8520,21101 21185,21101 11465,0 20858,-8763 20858,-20858 0,-13863 -10926,-21002 -21002,-21002z"/><path class="fil0" d="M178871 117481c5516,0 11180,4709 11180,12752 0,8176 -5653,12682 -11302,12682 -5997,0 -11578,-4870 -11578,-12604 0,-8036 5796,-12830 11700,-12830l0 0zm-815 -8205c-11250,0 -20094,9854 -20094,20914 0,12597 10253,20952 19900,20952 5966,0 9138,-2368 11481,-5085l0 4126c0,7222 -4386,11547 -11004,11547 -6393,-1 -9599,-4754 -10713,-7452l-8045 3363c2854,6033 8599,12326 18825,12326 11186,0 19711,-7046 19711,-21822l0 -37611 -8774 0 0 3546c-2698,-2908 -6389,-4804 -11287,-4804 0,0 0,0 0,0z"/><path class="fil1" d="M237502 117276c3824,0 6576,2032 7745,4470l-18742 7834c-808,-6065 4938,-12304 10997,-12304zm-366 -8051c-10613,0 -19523,8444 -19523,20903 0,13184 9932,21003 20542,21003 8856,0 14291,-4845 17536,-9186l-7237 -4814c-1877,2914 -5016,5761 -10254,5761 -5883,0 -8589,-3222 -10266,-6342l28066 -11646 -1457 -3413c-2712,-6683 -9037,-12265 -17406,-12265l-1 -1z"/><polygon class="fil3" points="204233,149888 213452,149888 213452,88195 204233,88195 "/></g><rect class="fil4" height="255998" width="255998" x="2"/></svg>